<svg width="380" height="363" viewBox="0 0 380 363" fill="none" xmlns="http://www.w3.org/2000/svg">
<path d="M190 363C294.934 363 380 281.74 380 181.5C380 81.2603 294.934 0 190 0C85.0659 0 0 81.2603 0 181.5C0 281.74 85.0659 363 190 363Z" fill="#C8C8CA"/>
<mask id="mask0_1_4" style="mask-type:luminance" maskUnits="userSpaceOnUse" x="0" y="0" width="380" height="363">
<path d="M190 363C294.934 363 380 281.74 380 181.5C380 81.2603 294.934 0 190 0C85.0659 0 0 81.2603 0 181.5C0 281.74 85.0659 363 190 363Z" fill="white"/>
</mask>
<g mask="url(#mask0_1_4)">
<path d="M280.992 293.214C268.745 271.067 190 257.168 190 257.168C190 257.168 111.256 271.067 99.0083 293.214C89.9553 323.95 82.3827 363.003 82.3827 363.003H190H297.618C297.618 363.003 292.502 321.129 280.992 293.214Z" fill="#F1C9A5"/>
<path d="M190 257.168C190 257.168 268.745 271.067 280.992 293.214C292.505 321.129 297.618 363.003 297.618 363.003H190V257.168Z" fill="#E4B692"/>
<path d="M211.437 212.14H168.563V280.682H211.437V212.14Z" fill="#F1C9A5"/>
<path d="M211.437 212.14H190V280.682H211.437V212.14Z" fill="#E4B692"/>
<path opacity="0.1" d="M168.563 243.901C172.419 254.475 187.979 260.535 199.408 260.535C203.542 260.535 207.563 259.874 211.437 258.662V212.14H168.563V243.901Z" fill="#DDAC8C"/>
<path d="M245.121 168.89C245.121 126.079 220.443 101.735 190 101.735C159.558 101.735 134.879 126.079 134.879 168.89C134.879 226.475 159.558 246.411 190 246.411C220.44 246.411 245.121 224.076 245.121 168.89Z" fill="#F1C9A5"/>
<path d="M236.73 198.578C226.737 197.58 219.991 187.295 221.684 175.62C223.356 163.936 232.819 155.26 242.817 156.253C252.804 157.246 259.539 167.526 257.854 179.211C256.177 190.898 246.723 199.566 236.73 198.578Z" fill="#E4B692"/>
<path d="M122.537 179.213C120.849 167.529 127.587 157.249 137.569 156.256C147.57 155.263 157.035 163.936 158.712 175.623C160.4 187.297 153.646 197.582 143.662 198.58C133.666 199.566 124.212 190.898 122.537 179.213Z" fill="#F1C9A5"/>
<path d="M245.121 168.89C245.121 126.079 220.443 101.735 190 101.735V246.411C220.44 246.411 245.121 224.076 245.121 168.89Z" fill="#E4B692"/>
<path d="M239.583 204.774C236.617 212.737 231.601 222.31 222.537 222.31C211.209 222.31 203.106 213.514 190.11 213.514C190.074 213.514 190.04 213.519 190.003 213.519C189.963 213.519 189.929 213.514 189.89 213.514C176.897 213.514 168.797 222.31 157.463 222.31C148.399 222.31 143.386 212.737 140.42 204.774L137.853 189.433V207.79C137.853 207.79 142.16 229.409 150.426 234.632C157.158 240.346 179.136 250.135 189.885 250.135C189.921 250.135 189.961 250.13 190 250.13C190.037 250.13 190.074 250.135 190.108 250.135H190.113C200.864 250.135 222.842 240.348 229.572 234.632C237.837 229.409 242.145 207.79 242.145 207.79V189.433L239.583 204.774Z" fill="#303030"/>
<path d="M163.308 109.927C163.308 109.927 173.545 149.511 230.588 169.535C225.223 160.686 224.249 149.975 224.249 149.975C224.249 149.975 233.512 159.29 248.623 166.741C256.912 150.91 266.663 127.157 244.725 114.119C222.787 101.078 170.621 77.7893 163.308 109.927Z" fill="#303030"/>
<path d="M144.297 166.275C144.297 166.275 148.531 121.084 166.156 111.087C151.121 104.821 128.209 123.895 130.645 135.537C133.084 147.181 144.297 166.275 144.297 166.275Z" fill="#303030"/>
<path d="M280.992 293.214C273.837 280.281 244.029 270.169 220.451 263.988C219.527 279.308 206.271 291.469 190 291.469C173.732 291.469 160.474 279.308 159.552 263.988C135.974 270.169 106.164 280.281 99.0083 293.214C89.9553 323.95 82.3827 363.002 82.3827 363.002H190H297.618C297.618 363.002 292.502 321.129 280.992 293.214Z" fill="#FFA941"/>
<path opacity="0.2" d="M157.786 271.51C158.762 286.83 172.787 298.991 189.998 298.991C207.211 298.991 221.233 286.83 222.209 271.51C243.819 276.864 270.348 285.173 281.982 295.707C281.656 294.864 281.325 294.032 280.987 293.214C273.832 280.281 244.024 270.169 220.445 263.988C219.522 279.308 206.266 291.469 189.995 291.469C173.726 291.469 160.468 279.308 159.547 263.988C135.968 270.169 106.158 280.281 99.0031 293.214C98.7905 293.939 98.5778 294.674 98.3652 295.406C110.177 285.018 136.383 276.811 157.786 271.51Z" fill="#FFA941"/>
<path d="M150.583 266.458C153.57 284.712 170.054 298.693 190 298.693C209.946 298.693 226.43 284.712 229.417 266.458C226.37 265.575 223.362 264.753 220.451 263.991C219.527 279.311 206.271 291.472 190 291.472C173.732 291.472 160.474 279.311 159.552 263.991C156.639 264.753 153.631 265.575 150.583 266.458Z" fill="#FFA941"/>
<path d="M198.969 227.313C198.969 227.313 197.657 221.731 190 221.731C183 221.731 181.031 227.313 181.031 227.313H198.969Z" fill="white"/>
</g>
</svg>
