<svg width="209" height="208" viewBox="0 0 209 208" fill="none" xmlns="http://www.w3.org/2000/svg">
<g clip-path="url(#clip0_1_78)">
<path d="M104.501 207.999C162.214 207.999 209 161.437 209 103.999C209 46.5621 162.214 0 104.501 0C46.7872 0 0.00128174 46.5621 0.00128174 103.999C0.00128174 161.437 46.7872 207.999 104.501 207.999Z" fill="#333333"/>
<mask id="mask0_1_78" style="mask-type:luminance" maskUnits="userSpaceOnUse" x="0" y="0" width="209" height="208">
<path d="M104.501 207.999C162.214 207.999 209 161.437 209 103.999C209 46.5621 162.214 0 104.501 0C46.7872 0 0.00128174 46.5621 0.00128174 103.999C0.00128174 161.437 46.7872 207.999 104.501 207.999Z" fill="white"/>
</mask>
<g mask="url(#mask0_1_78)">
<path d="M65.3016 107.835C65.3016 124.8 55.9483 125.238 56.6138 136.472C57.3544 148.913 67.1249 148.942 67.1249 157.495C67.1249 166.045 58.1397 175.632 66.1 184.84C101.1 184.84 104.515 184.84 104.515 184.84V81.0963L65.3016 107.835Z" fill="#2E576D"/>
<path d="M143.697 107.274C143.697 124.239 153.052 124.677 152.385 135.911C151.646 148.351 141.875 148.38 141.875 156.933C141.875 165.483 150.859 175.07 142.9 184.278C107.899 184.278 104.483 184.278 104.483 184.278V80.536L143.697 107.274Z" fill="#2E576D"/>
<path d="M104.501 132.968C128.129 132.968 147.283 113.781 147.283 90.1133C147.283 66.4452 128.129 47.2584 104.501 47.2584C80.8728 47.2584 61.7185 66.4452 61.7185 90.1133C61.7185 113.781 80.8728 132.968 104.501 132.968Z" fill="#2E576D"/>
<path d="M154.546 168.011C147.81 155.321 104.501 147.357 104.501 147.357C104.501 147.357 61.1916 155.321 54.4555 168.011C49.4764 185.623 45.3115 208 45.3115 208H104.501H163.69C163.69 208 160.876 184.007 154.546 168.011Z" fill="#F1C9A5"/>
<path d="M104.501 147.357C104.501 147.357 147.81 155.321 154.546 168.011C160.878 184.007 163.69 208 163.69 208H104.501V147.357Z" fill="#E4B692"/>
<path d="M116.291 121.556H92.7105V160.831H116.291V121.556Z" fill="#F1C9A5"/>
<path d="M116.291 121.556H104.501V160.831H116.291V121.556Z" fill="#E4B692"/>
<path opacity="0.1" d="M92.7105 139.755C94.8312 145.814 103.389 149.287 109.675 149.287C111.948 149.287 114.162 148.907 116.291 148.213V121.556H92.7105V139.755Z" fill="#DDAC8C"/>
<path d="M134.817 96.774C134.817 72.2432 121.244 58.294 104.501 58.294C87.7574 58.294 74.1843 72.2432 74.1843 96.774C74.1843 121.305 87.7574 141.193 104.501 141.193C121.243 141.193 134.817 121.306 134.817 96.774Z" fill="#F1C9A5"/>
<path d="M130.202 113.782C124.706 113.173 120.996 106.91 121.927 99.7997C122.847 92.6836 128.051 87.4007 133.55 88.0056C139.043 88.6119 142.747 94.8717 141.82 101.988C140.898 109.104 135.698 114.383 130.202 113.782Z" fill="#E4B692"/>
<path d="M67.3963 101.988C66.468 94.8717 70.1739 88.6105 75.664 88.0056C81.1643 87.4007 86.3701 92.6836 87.2925 99.7997C88.2194 106.91 84.5063 113.174 79.0147 113.782C73.5173 114.383 68.3173 109.104 67.3963 101.988Z" fill="#F1C9A5"/>
<path d="M134.817 96.774C134.817 72.2432 121.244 58.294 104.501 58.294V141.193C121.243 141.193 134.817 121.306 134.817 96.774Z" fill="#E4B692"/>
<path d="M137.319 94.0054C137.319 93.9321 137.323 93.8617 137.323 93.7899C137.323 74.7604 124.378 54.6791 106.259 54.6791C88.14 54.6791 71.7114 74.7589 71.7114 93.7884C71.7114 93.8617 71.7157 93.9321 71.7157 94.0039L137.319 94.0054Z" fill="#2E576D"/>
<path d="M163.69 208C163.69 208 160.878 184.007 154.546 168.011C150.852 161.05 136.163 155.518 123.643 151.936L104.456 166.924L84.4977 152.183C72.1762 155.77 58.0646 161.211 54.4555 168.013C49.4764 185.624 45.3115 208.001 45.3115 208.001H104.501H163.69V208Z" fill="#FFA941"/>
</g>
</g>
<defs>
<clipPath id="clip0_1_78">
<rect width="209" height="208" fill="white"/>
</clipPath>
</defs>
</svg>
