<svg width="185" height="182" viewBox="0 0 185 182" fill="none" xmlns="http://www.w3.org/2000/svg">
<g clip-path="url(#clip0_1_125)">
<path d="M92.5007 181.999C143.587 181.999 185 141.257 185 90.9994C185 40.7418 143.587 0 92.5007 0C41.4147 0 0.001297 40.7418 0.001297 90.9994C0.001297 141.257 41.4147 181.999 92.5007 181.999Z" fill="#FFA941"/>
<mask id="mask0_1_125" style="mask-type:luminance" maskUnits="userSpaceOnUse" x="0" y="0" width="185" height="182">
<path d="M92.5007 181.999C143.587 181.999 185 141.257 185 90.9994C185 40.7418 143.587 0 92.5007 0C41.4147 0 0.001297 40.7418 0.001297 90.9994C0.001297 141.257 41.4147 181.999 92.5007 181.999Z" fill="white"/>
</mask>
<g mask="url(#mask0_1_125)">
<path d="M136.799 147.01C130.837 135.906 92.5006 128.937 92.5006 128.937C92.5006 128.937 54.1648 135.906 48.2023 147.01C43.7949 162.42 40.1083 182 40.1083 182H92.5006H144.893C144.893 182 142.402 161.006 136.799 147.01Z" fill="#F1C9A5"/>
<path d="M92.5006 128.937C92.5006 128.937 130.837 135.906 136.799 147.01C142.404 161.006 144.893 182 144.893 182H92.5006V128.937Z" fill="#E4B692"/>
<path d="M102.937 106.363H82.0643V140.728H102.937V106.363Z" fill="#F1C9A5"/>
<path d="M102.937 106.363H92.5006V140.728H102.937V106.363Z" fill="#E4B692"/>
<path opacity="0.1" d="M82.0643 122.286C83.9415 127.587 91.5167 130.626 97.0805 130.626C99.0931 130.626 101.051 130.294 102.937 129.687V106.362H82.0643V122.286Z" fill="#DDAC8C"/>
<path d="M119.336 84.6772C119.336 63.2128 107.321 51.0072 92.5006 51.0072C77.68 51.0072 65.6655 63.2128 65.6655 84.6772C65.6655 113.549 77.68 123.544 92.5006 123.544C107.32 123.544 119.336 112.346 119.336 84.6772Z" fill="#F1C9A5"/>
<path d="M115.25 99.5618C110.386 99.0602 107.101 93.9046 107.924 88.0514C108.738 82.1931 113.345 77.8434 118.213 78.3412C123.075 78.8391 126.354 83.9933 125.533 89.8516C124.718 95.7111 120.115 100.057 115.25 99.5618Z" fill="#E4B692"/>
<path d="M59.657 89.8529C58.8353 83.9946 62.1156 78.8403 66.9753 78.3425C71.8453 77.8434 76.452 82.1931 77.2685 88.0526C78.0889 93.9059 74.8022 99.0627 69.9413 99.563C65.0752 100.057 60.4723 95.7111 59.657 89.8529Z" fill="#F1C9A5"/>
<path d="M119.336 84.6772C119.336 63.2128 107.321 51.0072 92.5006 51.0072V123.544C107.32 123.544 119.336 112.346 119.336 84.6772Z" fill="#E4B692"/>
<path d="M66.6891 91.7889C66.6891 91.7889 70.3796 84.8105 71.9539 71.398C83.0879 81.8059 96.2052 83.4716 113.543 71.398C113.97 81.1773 116.877 87.277 120.285 91.7889C122.382 74.8916 127.014 66.5631 125.459 57.6826C113.904 59.5633 109.835 50.2202 92.4994 50.2202C75.1613 50.2202 71.3035 59.2075 60.5298 58.4042C60.5311 68.9554 65.6655 74.5773 66.6891 91.7889Z" fill="#C8C8CA"/>
<path d="M136.799 147.01C132.978 139.895 115.874 134.481 104.073 131.508C103.614 137.405 98.6139 142.054 92.5006 142.054C86.3886 142.054 81.3884 137.407 80.9283 131.508C69.1273 134.481 52.0231 139.895 48.2023 147.01C43.7949 162.42 40.1083 182 40.1083 182H92.5006H144.893C144.893 182 142.402 161.006 136.799 147.01Z" fill="#2D5972"/>
</g>
</g>
<defs>
<clipPath id="clip0_1_125">
<rect width="185" height="182" fill="white"/>
</clipPath>
</defs>
</svg>
