<svg width="145" height="145" viewBox="0 0 145 145" fill="none" xmlns="http://www.w3.org/2000/svg">
<g clip-path="url(#clip0_1_145)">
<path d="M72.387 144.772C112.365 144.772 144.773 112.364 144.773 72.386C144.773 32.4083 112.365 0 72.387 0C32.4093 0 0.00100708 32.4083 0.00100708 72.386C0.00100708 112.364 32.4093 144.772 72.387 144.772Z" fill="#FFA941"/>
<mask id="mask0_1_145" style="mask-type:luminance" maskUnits="userSpaceOnUse" x="0" y="0" width="145" height="145">
<path d="M72.387 144.772C112.365 144.772 144.773 112.364 144.773 72.386C144.773 32.4083 112.365 0 72.387 0C32.4093 0 0.00100708 32.4083 0.00100708 72.386C0.00100708 112.364 32.4093 144.772 72.387 144.772Z" fill="white"/>
</mask>
<g mask="url(#mask0_1_145)">
<path d="M107.053 116.94C102.387 108.107 72.387 102.564 72.387 102.564C72.387 102.564 42.387 108.107 37.721 116.94C34.272 129.198 31.387 144.773 31.387 144.773H72.387H113.387C113.387 144.773 111.438 128.073 107.053 116.94Z" fill="#F1C9A5"/>
<path d="M72.387 102.564C72.387 102.564 102.387 108.107 107.053 116.94C111.439 128.073 113.387 144.773 113.387 144.773H72.387V102.564Z" fill="#E4B692"/>
<path d="M80.554 84.606H64.22V111.942H80.554V84.606Z" fill="#F1C9A5"/>
<path d="M80.554 84.606H72.387V111.942H80.554V84.606Z" fill="#E4B692"/>
<path opacity="0.1" d="M64.22 97.273C65.689 101.49 71.617 103.907 75.971 103.907C77.546 103.907 79.078 103.643 80.554 103.16V84.606H64.22V97.273Z" fill="#DDAC8C"/>
<path d="M93.387 67.357C93.387 50.283 83.985 40.574 72.387 40.574C60.789 40.574 51.387 50.283 51.387 67.357C51.387 90.323 60.789 98.274 72.387 98.274C83.984 98.274 93.387 89.366 93.387 67.357Z" fill="#F1C9A5"/>
<path d="M90.19 79.197C86.383 78.798 83.813 74.697 84.458 70.041C85.095 65.381 88.7 61.921 92.509 62.317C96.314 62.713 98.88 66.813 98.238 71.473C97.599 76.134 93.997 79.591 90.19 79.197Z" fill="#E4B692"/>
<path d="M46.685 71.474C46.042 66.814 48.609 62.714 52.412 62.318C56.223 61.921 59.828 65.381 60.467 70.042C61.109 74.698 58.537 78.8 54.733 79.198C50.925 79.591 47.323 76.134 46.685 71.474Z" fill="#F1C9A5"/>
<path d="M93.387 67.357C93.387 50.283 83.985 40.574 72.387 40.574V98.274C83.984 98.274 93.387 89.366 93.387 67.357Z" fill="#E4B692"/>
<path d="M107.053 116.94C104.327 111.782 92.971 107.749 83.988 105.284L72.387 118.544L60.786 105.284C51.803 107.749 40.446 111.782 37.721 116.94C34.272 129.198 31.387 144.773 31.387 144.773H72.387H113.387C113.387 144.773 111.438 128.073 107.053 116.94Z" fill="#3595BB"/>
<path d="M54.766 75.53C54.766 75.53 69.601 65.406 71.347 59.822C71.172 64.883 71.347 69.421 71.347 69.421C71.347 69.421 85.834 55.11 84.437 43.416C68.031 34.688 55.29 44.812 52.322 49.524C49.354 54.236 48.656 67.327 54.766 75.53Z" fill="#262421"/>
<path d="M82.342 48.127C82.342 48.127 89.15 56.332 90.546 72.738C95.433 65.581 100.669 44.811 84.437 43.416C83.04 46.033 82.342 48.127 82.342 48.127Z" fill="#262421"/>
<path d="M87.385 121.332L78.308 112.895L72.372 118.543L82.237 104.459C82.237 104.459 85.454 104.815 86.598 108.319C86.956 113.826 87.385 121.332 87.385 121.332Z" fill="white"/>
<path d="M69.179 144.773H72.387V118.544L69.179 115.505V144.773Z" fill="#27AAE1"/>
<path d="M57.359 121.332L66.436 112.895L72.372 118.543L62.507 104.459C62.507 104.459 59.29 104.815 58.146 108.319C57.788 113.826 57.359 121.332 57.359 121.332Z" fill="white"/>
</g>
</g>
<defs>
<clipPath id="clip0_1_145">
<rect width="144.773" height="144.773" fill="white"/>
</clipPath>
</defs>
</svg>
