<svg width="216" height="222" viewBox="0 0 216 222" fill="none" xmlns="http://www.w3.org/2000/svg">
<g clip-path="url(#clip0_1_102)">
<path d="M108.001 221.998C167.647 221.998 216 172.302 216 110.999C216 49.6961 167.647 0 108.001 0C48.3545 0 0.00158691 49.6961 0.00158691 110.999C0.00158691 172.302 48.3545 221.998 108.001 221.998Z" fill="#B3B3B3"/>
<mask id="mask0_1_102" style="mask-type:luminance" maskUnits="userSpaceOnUse" x="0" y="0" width="216" height="222">
<path d="M108.001 221.998C167.647 221.998 216 172.302 216 110.999C216 49.6961 167.647 0 108.001 0C48.3545 0 0.00158691 49.6961 0.00158691 110.999C0.00158691 172.302 48.3545 221.998 108.001 221.998Z" fill="white"/>
</mask>
<g mask="url(#mask0_1_102)">
<path d="M159.6 179.32C152.638 165.775 107.878 157.275 107.878 157.275C107.878 157.275 63.1187 165.775 56.157 179.32C51.0112 198.117 46.7068 222 46.7068 222H107.878H169.05C169.05 222 166.144 196.392 159.6 179.32Z" fill="#F1C9A5"/>
<path d="M107.878 157.275C107.878 157.275 152.638 165.775 159.6 179.32C166.144 196.392 169.05 222 169.05 222H107.878V157.275Z" fill="#E4B692"/>
<path d="M120.063 129.738H95.6933V171.656H120.063V129.738Z" fill="#F1C9A5"/>
<path d="M120.063 129.738H107.878V171.656H120.063V129.738Z" fill="#E4B692"/>
<path opacity="0.1" d="M95.6933 149.162C97.885 155.628 106.73 159.335 113.226 159.335C115.576 159.335 117.861 158.93 120.063 158.189V129.738H95.6933V149.162Z" fill="#DDAC8C"/>
<path d="M139.21 103.288C139.21 77.1057 125.182 62.2176 107.878 62.2176C90.5743 62.2176 76.5466 77.1057 76.5466 103.288C76.5466 129.469 90.5743 150.697 107.878 150.697C125.182 150.697 139.21 129.471 139.21 103.288Z" fill="#F1C9A5"/>
<path d="M134.442 121.44C128.762 120.79 124.927 114.106 125.89 106.517C126.84 98.9219 132.219 93.2835 137.902 93.929C143.579 94.5762 147.407 101.257 146.449 108.852C145.494 116.448 140.122 122.081 134.442 121.44Z" fill="#E4B692"/>
<path d="M69.5312 108.852C68.5719 101.257 72.4018 94.5746 78.0744 93.929C83.7604 93.2835 89.139 98.9219 90.0924 106.517C91.0517 114.106 87.2128 120.792 81.5373 121.44C75.8573 122.081 70.4846 116.448 69.5312 108.852Z" fill="#F1C9A5"/>
<path d="M139.21 103.288C139.21 77.1057 125.182 62.2176 107.878 62.2176V150.697C125.182 150.697 139.21 129.471 139.21 103.288Z" fill="#E4B692"/>
<path d="M93.0569 139.259C93.0569 139.259 79.544 127.941 82.5473 113.026C85.5492 98.1107 93.0569 95.5407 93.0569 88.8503C105.567 104.283 116.581 115.08 136.598 109.424C142.603 113.026 135.097 131.547 126.087 141.318C151.612 126.915 181.138 73.9361 119.58 53.3589C58.0205 32.7833 40.5075 136.174 93.0569 139.259Z" fill="#0F303F"/>
<path d="M107.877 78.449C124.05 78.449 137.485 90.4619 140.22 106.278C140.554 104.346 140.738 102.361 140.738 100.333C140.738 81.6815 126.027 66.5603 107.877 66.5603C89.7298 66.5603 75.0188 81.6815 75.0188 100.333C75.0188 102.361 75.2023 104.346 75.538 106.278C78.2698 90.4619 91.7037 78.449 107.877 78.449Z" fill="#FFA941"/>
<path d="M83.9797 163.429C88.3631 165.843 98.6116 170.874 107.877 170.874C120.063 170.874 135.993 164.74 135.993 164.74L133.802 164.091C128.817 162.421 123.864 161.034 119.632 159.954C107.52 167.414 95.7067 160.071 95.6948 160.063C92.1394 160.979 88.102 162.107 83.9797 163.429Z" fill="#FFA941"/>
<path d="M159.6 179.32C157.245 174.74 150.564 170.739 142.76 167.447C138.451 183.081 124.471 194.542 107.878 194.542C91.286 194.542 77.306 183.081 72.9971 167.447C65.1925 170.74 58.5114 174.74 56.157 179.32C51.0112 198.117 46.7068 222 46.7068 222H107.878H169.05C169.05 222 166.144 196.392 159.6 179.32Z" fill="#1594A3"/>
<path d="M178.951 155.061C172.237 152.601 161.544 157.968 154.52 157.275C146.843 156.518 142.688 161.879 137.967 160.906C128.892 159.037 128.056 162.417 128.056 162.417C128.056 162.417 125.861 157.84 134.939 159.333C144.016 160.828 150.954 156.369 153.028 153.494C156.162 149.148 166.642 150.172 166.642 150.172L161.172 143.654C157.318 142.887 151.598 143.398 148.49 148.893C145.383 154.389 142.522 155.027 133.802 154.004C125.081 152.982 119.632 159.953 119.632 159.953L136.119 164.884C136.119 164.884 139.521 165.838 143.003 165.746C146.485 165.652 150.126 161.968 157.41 162.535C165.211 163.142 172.298 159.244 181.478 162.771L178.951 155.061Z" fill="#FFA941"/>
</g>
</g>
<defs>
<clipPath id="clip0_1_102">
<rect width="216" height="222" fill="white"/>
</clipPath>
</defs>
</svg>
