<svg width="145" height="145" viewBox="0 0 145 145" fill="none" xmlns="http://www.w3.org/2000/svg">
<path d="M72.386 144.772C112.364 144.772 144.772 112.364 144.772 72.386C144.772 32.4083 112.364 0 72.386 0C32.4083 0 0 32.4083 0 72.386C0 112.364 32.4083 144.772 72.386 144.772Z" fill="#C8C8CA"/>
<mask id="mask0_1_30" style="mask-type:luminance" maskUnits="userSpaceOnUse" x="0" y="0" width="145" height="145">
<path d="M72.386 144.772C112.364 144.772 144.772 112.364 144.772 72.386C144.772 32.4083 112.364 0 72.386 0C32.4083 0 0 32.4083 0 72.386C0 112.364 32.4083 144.772 72.386 144.772Z" fill="white"/>
</mask>
<g mask="url(#mask0_1_30)">
<path d="M59.14 98.774H84.359C84.359 98.774 97.306 86 96.806 69.424C96.306 52.848 80.472 42.682 66.306 42.682C52.14 42.683 41.64 77.533 59.14 98.774Z" fill="#A25A34"/>
<path d="M107.052 116.94C102.386 108.107 72.386 102.564 72.386 102.564C72.386 102.564 42.386 108.107 37.72 116.94C34.271 129.198 31.386 144.773 31.386 144.773H72.386H113.386C113.386 144.773 111.437 128.073 107.052 116.94Z" fill="#F1C9A5"/>
<path d="M72.386 102.564C72.386 102.564 102.386 108.107 107.052 116.94C111.438 128.073 113.386 144.773 113.386 144.773H72.386V102.564Z" fill="#E4B692"/>
<path d="M80.553 84.606H64.219V111.942H80.553V84.606Z" fill="#F1C9A5"/>
<path d="M80.553 84.606H72.386V111.942H80.553V84.606Z" fill="#E4B692"/>
<path opacity="0.1" d="M64.219 97.273C65.688 101.49 71.616 103.907 75.97 103.907C77.545 103.907 79.077 103.643 80.553 103.16V84.606H64.219V97.273Z" fill="#DDAC8C"/>
<path d="M93.386 67.357C93.386 50.283 83.984 40.574 72.386 40.574C60.788 40.574 51.386 50.283 51.386 67.357C51.386 84.431 60.788 98.274 72.386 98.274C83.983 98.274 93.386 84.432 93.386 67.357Z" fill="#F1C9A5"/>
<path d="M90.189 79.195C86.382 78.771 83.812 74.412 84.457 69.463C85.094 64.51 88.699 60.833 92.508 61.254C96.313 61.676 98.879 66.033 98.237 70.986C97.598 75.939 93.996 79.613 90.189 79.195Z" fill="#E4B692"/>
<path d="M46.684 70.986C46.041 66.033 48.608 61.676 52.411 61.254C56.221 60.833 59.827 64.51 60.466 69.463C61.109 74.412 58.536 78.772 54.732 79.195C50.924 79.613 47.322 75.939 46.684 70.986Z" fill="#F1C9A5"/>
<path d="M93.386 67.357C93.386 50.283 83.984 40.574 72.386 40.574V98.274C83.983 98.274 93.386 84.432 93.386 67.357Z" fill="#E4B692"/>
<path d="M107.052 116.94C106.774 116.413 106.4 115.897 105.951 115.393C100.86 122.095 87.756 126.867 72.387 126.867C72.386 126.867 72.385 126.867 72.385 126.867C57.016 126.867 43.911 122.096 38.82 115.394C38.373 115.897 37.999 116.413 37.72 116.94C34.271 129.198 31.386 144.773 31.386 144.773H72.386H113.386C113.386 144.773 111.437 128.073 107.052 116.94Z" fill="#01561E"/>
<path d="M63.61 49.212C67.096 55.503 75.833 59.087 82.136 63.813C93.172 72.087 88.184 90.381 84.358 98.775C98.226 90.714 108.394 77.19 103.292 55.275C98.19 33.359 80.775 24.034 62.76 31.805C47.935 27.918 32.719 50.431 34.473 70.793C36.226 91.153 59.14 98.774 59.14 98.774C59.14 98.774 45.473 68.441 63.61 49.212Z" fill="#FFA941"/>
</g>
</svg>
