<svg width="210" height="214" viewBox="0 0 210 214" fill="none" xmlns="http://www.w3.org/2000/svg">
<path d="M105.001 213.999C162.99 213.999 210 166.093 210 106.999C210 47.9052 162.99 0 105.001 0C47.0113 0 0.00152588 47.9052 0.00152588 106.999C0.00152588 166.093 47.0113 213.999 105.001 213.999Z" fill="#FFA941"/>
<mask id="mask0_1_51" style="mask-type:luminance" maskUnits="userSpaceOnUse" x="0" y="0" width="210" height="214">
<path d="M105.001 213.999C162.99 213.999 210 166.093 210 106.999C210 47.9052 162.99 0 105.001 0C47.0113 0 0.00152588 47.9052 0.00152588 106.999C0.00152588 166.093 47.0113 213.999 105.001 213.999Z" fill="white"/>
</mask>
<g mask="url(#mask0_1_51)">
<path d="M148.205 93.7725C148.205 69.0722 128.558 43.0149 104.319 43.0149C80.0803 43.0149 60.4327 69.0722 60.4327 93.7725C60.4327 118.473 80.0803 138.495 104.319 138.495C128.558 138.493 148.205 118.471 148.205 93.7725Z" fill="#583A2F"/>
<path d="M79.7438 188.985H135.462C135.462 188.985 141.148 127.123 140.423 102.622C139.698 78.1216 116.73 63.093 96.1814 63.093C75.633 63.093 54.3592 157.585 79.7438 188.985Z" fill="#583A2F"/>
<path d="M155.285 172.858C150.808 164.219 130.252 157.713 116.847 154.296V125.063H93.1541V154.296C79.7496 157.713 59.1939 164.219 54.7161 172.858C49.7132 190.977 45.5283 214 45.5283 214H105.001H164.473C164.473 214 161.646 189.314 155.285 172.858Z" fill="#F1C9A5"/>
<path d="M155.285 172.858C150.808 164.219 130.252 157.713 116.847 154.296V125.063H105.001V151.608V165.47V214H164.473C164.473 214 161.646 189.314 155.285 172.858Z" fill="#E4B692"/>
<path opacity="0.1" d="M93.1541 143.787C95.285 150.02 103.884 153.593 110.199 153.593C112.484 153.593 114.706 153.203 116.847 152.489V125.063H93.1541V143.787Z" fill="#DDAC8C"/>
<path d="M135.462 99.5655C135.462 74.3271 121.824 59.9755 105.001 59.9755C88.1773 59.9755 74.5393 74.3271 74.5393 99.5655C74.5393 124.804 88.1773 145.266 105.001 145.266C121.823 145.266 135.462 124.805 135.462 99.5655Z" fill="#F1C9A5"/>
<path d="M130.825 117.07C125.303 116.529 121.575 110.95 122.509 104.619C123.433 98.2825 128.662 93.5774 134.187 94.117C139.707 94.6565 143.429 100.232 142.497 106.569C141.572 112.906 136.347 117.607 130.825 117.07Z" fill="#E4B692"/>
<path d="M66.467 106.569C65.5343 100.232 69.2578 94.6565 74.7742 94.117C80.3023 93.5789 85.5315 98.2825 86.4584 104.619C87.3911 110.95 83.6588 116.529 78.141 117.07C72.6173 117.607 67.3939 112.906 66.467 106.569Z" fill="#F1C9A5"/>
<path d="M135.462 99.5655C135.462 74.3271 121.824 59.9755 105.001 59.9755V145.266C121.823 145.266 135.462 124.805 135.462 99.5655Z" fill="#E4B692"/>
<path d="M116.847 154.298V147.704C113.018 148.039 109.058 148.217 105.001 148.217C100.944 148.217 96.9836 148.039 93.1541 147.704V154.298C79.7496 157.714 59.1939 164.221 54.7161 172.859C49.7132 190.979 45.5283 214.001 45.5283 214.001H105.001H164.473C164.473 214.001 161.647 189.316 155.285 172.859C150.808 164.221 130.252 157.713 116.847 154.298Z" fill="#333333"/>
<path d="M90.4764 154.733C90.4764 154.745 90.4764 154.757 90.4764 154.768" stroke="white" stroke-width="1.4308" stroke-linecap="round" stroke-linejoin="round"/>
<path d="M90.7477 157.588C92.0532 164.395 97.938 169.531 105.002 169.531C112.549 169.531 118.752 163.665 119.458 156.163" stroke="white" stroke-width="1.4308" stroke-linecap="round" stroke-linejoin="round" stroke-dasharray="0.05 1.92"/>
<path d="M119.525 154.768C119.525 154.756 119.525 154.744 119.525 154.733" stroke="white" stroke-width="1.4308" stroke-linecap="round" stroke-linejoin="round"/>
<path d="M60.4327 93.7725C60.4327 93.7725 55.0831 184.203 51.0941 214.001H81.5556L75.3646 130.087" fill="#583A2F"/>
<path d="M148.204 93.7725C148.204 93.7725 153.553 184.203 157.542 214.001H127.081L131.115 134.907" fill="#583A2F"/>
<path d="M106.753 54.9128C88.5472 54.9128 72.0385 75.5732 72.0385 95.1517C72.0385 95.2271 72.0429 95.2995 72.0429 95.3734H89.2362L90.8637 82.3078V95.3734H108.27V82.3078L111.322 95.3734H122.367V84.5251L125.015 95.3734H137.96C137.96 95.298 137.964 95.2256 137.964 95.1517C137.964 75.5732 124.957 54.9128 106.753 54.9128Z" fill="#583A2F"/>
</g>
</svg>
